<svg width="448" height="512" xmlns="http://www.w3.org/2000/svg">

 <g>
  <title>background</title>
  <rect fill="none" id="canvas_background" height="402" width="582" y="-1" x="-1"/>
 </g>
 <g>
  <title>Layer 1</title>
  <path fill="#ffffff" id="svg_1" d="m257.5,445.1l-22.2,22.2c-9.4,9.4 -24.6,9.4 -33.9,0l-194.4,-194.3c-9.4,-9.4 -9.4,-24.6 0,-33.9l194.4,-194.4c9.4,-9.4 24.6,-9.4 33.9,0l22.2,22.2c9.5,9.5 9.3,25 -0.4,34.3l-120.5,114.8l287.4,0c13.3,0 24,10.7 24,24l0,32c0,13.3 -10.7,24 -24,24l-287.4,0l120.5,114.8c9.8,9.3 10,24.8 0.4,34.3z"/>
 </g>
</svg>