<svg width="24" height="24" xmlns="http://www.w3.org/2000/svg">

 <g>
  <title>background</title>
  <rect fill="none" id="canvas_background" height="402" width="582" y="-1" x="-1"/>
 </g>
 <g>
  <title>Layer 1</title>
  <g id="surface1">
   <path fill="#ffffff" id="svg_1" d="m6,2l0,2l-1,0c-1.10156,0 -2,0.89844 -2,2l0,14c0,1.10156 0.89844,2 2,2l14,0c1.10156,0 2,-0.89844 2,-2l0,-14c0,-1.10156 -0.89844,-2 -2,-2l-1,0l0,-2l-2,0l0,2l-8,0l0,-2l-2,0zm-1,7l14,0l0,11l-14,0l0,-11zm7,4l0,5l5,0l0,-5l-5,0z"/>
  </g>
 </g>
</svg>